HIERARCHY
ROOT joint_Root
{
	OFFSET 0.0 0.0 0.0
	CHANNELS 6 Xposition Yposition Zposition Zrotation Xrotation Yrotation 
	JOINT Hips
	{
		OFFSET 4.5925 91.4895 -427.239
		CHANNELS 6 Xposition Yposition Zposition Zrotation Xrotation Yrotation 
		JOINT Spine
		{
			OFFSET 15.7357 0.0 0.0
			CHANNELS 6 Xposition Yposition Zposition Zrotation Xrotation Yrotation 
			JOINT Chest
			{
				OFFSET 8.98455 -0.406207 0.0
				CHANNELS 6 Xposition Yposition Zposition Zrotation Xrotation Yrotation 
				JOINT Neck
				{
					OFFSET 16.3773 0.0 0.0
					CHANNELS 6 Xposition Yposition Zposition Zrotation Xrotation Yrotation 
					JOINT Head
					{
						OFFSET 6.45672 0.0 0.0
						CHANNELS 6 Xposition Yposition Zposition Zrotation Xrotation Yrotation 
						End Site
						{
							OFFSET 0.0 0.0 0.0
						}
					}
				}
				JOINT Shoulder_L
				{
					OFFSET 12.9942 -0.242716 4.98039
					CHANNELS 6 Xposition Yposition Zposition Zrotation Xrotation Yrotation 
					JOINT UpperArm_L
					{
						OFFSET 5.34809 0.0 0.0
						CHANNELS 6 Xposition Yposition Zposition Zrotation Xrotation Yrotation 
						JOINT LowerArm_L
						{
							OFFSET 24.3286 1.87007e-05 0.0
							CHANNELS 6 Xposition Yposition Zposition Zrotation Xrotation Yrotation 
							JOINT Hand_L
							{
								OFFSET 22.2916 0.0 0.0
								CHANNELS 6 Xposition Yposition Zposition Zrotation Xrotation Yrotation 
								End Site
								{
									OFFSET 0.0 0.0 0.0
								}
							}
						}
					}
				}
				JOINT Shoulder_R
				{
					OFFSET 12.9945 -0.242716 -4.98039
					CHANNELS 6 Xposition Yposition Zposition Zrotation Xrotation Yrotation 
					JOINT UpperArm_R
					{
						OFFSET -5.34813 0.0 0.0
						CHANNELS 6 Xposition Yposition Zposition Zrotation Xrotation Yrotation 
						JOINT LowerArm_R
						{
							OFFSET -24.3289 0.000322201 0.0
							CHANNELS 6 Xposition Yposition Zposition Zrotation Xrotation Yrotation 
							JOINT Hand_R
							{
								OFFSET -22.2915 -0.000108084 0.0
								CHANNELS 6 Xposition Yposition Zposition Zrotation Xrotation Yrotation 
								End Site
								{
									OFFSET 0.0 0.0 0.0
								}
							}
						}
					}
				}
			}
		}
		JOINT UpperLeg_L
		{
			OFFSET -2.19248 -6.46944 0.0
			CHANNELS 6 Xposition Yposition Zposition Zrotation Xrotation Yrotation 
			JOINT LowerLeg_L
			{
				OFFSET 39.0811 0.0 -1.23785e-05
				CHANNELS 6 Xposition Yposition Zposition Zrotation Xrotation Yrotation 
				JOINT Foot_L
				{
					OFFSET 40.9854 0.0 -1.26872e-05
					CHANNELS 6 Xposition Yposition Zposition Zrotation Xrotation Yrotation 
					JOINT Toes_L
					{
						OFFSET 11.7543 0.0 0.0
						CHANNELS 6 Xposition Yposition Zposition Zrotation Xrotation Yrotation 
						End Site
						{
							OFFSET 0.0 0.0 0.0
						}
					}
				}
			}
		}
		JOINT UpperLeg_R
		{
			OFFSET -2.19251 6.46944 0.0
			CHANNELS 6 Xposition Yposition Zposition Zrotation Xrotation Yrotation 
			JOINT LowerLeg_R
			{
				OFFSET -39.0811 -0.00228153 -0.0401928
				CHANNELS 6 Xposition Yposition Zposition Zrotation Xrotation Yrotation 
				JOINT Foot_R
				{
					OFFSET -40.9854 0.0 0.0
					CHANNELS 6 Xposition Yposition Zposition Zrotation Xrotation Yrotation 
					JOINT Toes_R
					{
						OFFSET -11.7543 0.0 0.0
						CHANNELS 6 Xposition Yposition Zposition Zrotation Xrotation Yrotation 
						End Site
						{
							OFFSET 0.0 0.0 0.0
						}
					}
				}
			}
		}
	}
}
MOTION
Frames:	7
Frame Time:	0.0333333
0.000000 0.000000 0.000000 0.000000 0.000000 -0.000000 4.418930 90.999600 0.903301 89.098000 -16.951100 5.982230 15.735700 0.000005 -0.000001 78.708300 84.811800 -75.290900 8.984550 -0.406207 -0.000000 2.485640 -2.187330 6.876200 16.377300 -0.000001 -0.000001 10.073500 -2.739040 -3.597530 6.456720 -0.000001 -0.000000 7.344420 -4.692490 1.010850 12.994200 -0.242716 4.980390 -86.629400 -7.201630 -64.835300 5.348090 -0.000007 -0.000001 -31.011400 -56.972500 -70.125500 24.328600 0.000019 0.000005 22.339100 11.400000 -64.313800 22.291600 -0.000001 0.000005 21.076800 5.356150 -1.562520 12.994500 -0.242716 -4.980390 87.900800 10.064100 -78.153800 -5.348130 -0.000001 -0.000004 -60.799800 26.682500 -6.784920 -24.328900 0.000322 -0.000009 0.317854 0.856569 -20.422300 -22.291500 -0.000108 -0.000004 16.699900 5.406170 -3.138990 -2.192480 -6.469440 -0.000000 -176.873000 -22.939500 -0.333375 39.081100 -0.000007 -0.000012 -0.148715 0.276914 28.238100 40.985400 -0.000006 -0.000013 1.748710 0.881016 -71.695900 11.754300 -0.000000 0.000003 -0.000255 -0.002269 -16.662500 -2.192510 6.469440 -0.000001 172.759000 15.724100 176.162000 -39.081100 -0.002282 -0.040193 -0.168926 0.323013 28.067000 -40.985400 0.000008 0.000006 1.557830 22.215100 -68.052600 -11.754300 -0.000006 -0.000006 -0.000520 -0.008329 -16.912100
0.000000 0.000000 0.000000 0.000000 0.000000 -0.000000 4.207590 91.019300 0.835320 89.156100 -15.942800 6.064690 15.735700 0.000005 -0.000001 79.322300 84.768100 -76.027800 8.984550 -0.406207 -0.000000 2.586670 -2.085830 6.630050 16.377300 -0.000001 -0.000001 9.784450 -2.747870 -3.491650 6.456720 -0.000001 -0.000000 7.367410 -4.542390 0.858920 12.994200 -0.242716 4.980390 -87.039700 -6.453080 -65.291900 5.348090 -0.000007 -0.000001 -30.496000 -55.094300 -66.184000 24.328600 0.000019 0.000005 20.723400 8.331080 -69.046400 22.291600 -0.000001 0.000005 20.326500 5.342490 -1.152750 12.994500 -0.242716 -4.980390 87.884100 10.088800 -78.090400 -5.348130 -0.000001 -0.000004 -60.846200 27.093700 -6.941740 -24.328900 0.000322 -0.000009 0.223604 0.591241 -20.807200 -22.291500 -0.000108 -0.000004 16.679800 5.407130 -3.170450 -2.192480 -6.469440 -0.000000 -176.745000 -22.465700 -0.364405 39.081100 -0.000007 -0.000012 -0.151675 0.282350 28.244400 40.985400 -0.000006 -0.000013 1.770860 1.495110 -71.568800 11.754300 -0.000000 0.000003 -0.000264 -0.002338 -16.665000 -2.192510 6.469440 -0.000001 172.737000 16.273000 176.452000 -39.081100 -0.002282 -0.040193 -0.177268 0.339470 28.010100 -40.985400 0.000008 0.000006 1.490180 21.802100 -68.097600 -11.754300 -0.000006 -0.000006 -0.000486 -0.007816 -16.891300
0.000000 0.000000 0.000000 0.000000 0.000000 -0.000000 3.963120 91.052900 0.739913 89.158200 -14.783400 6.139700 15.735700 0.000005 -0.000001 80.045100 84.700000 -76.865000 8.984550 -0.406207 -0.000000 2.738450 -1.970100 6.401330 16.377300 -0.000001 -0.000001 9.437990 -2.840720 -3.253500 6.456720 -0.000001 -0.000000 7.084780 -4.486820 0.626831 12.994200 -0.242716 4.980390 -87.497100 -5.614530 -65.925300 5.348090 -0.000007 -0.000001 -29.583800 -52.274600 -60.577200 24.328600 0.000019 0.000005 19.924500 5.382930 -75.490300 22.291600 -0.000001 0.000005 19.770700 5.334300 -0.911774 12.994500 -0.242716 -4.980390 87.834800 10.245700 -78.000000 -5.348130 -0.000001 -0.000004 -60.718700 27.823900 -7.146240 -24.328900 0.000322 -0.000009 0.087963 0.232489 -20.951800 -22.291500 -0.000108 -0.000004 16.704200 5.409710 -3.255730 -2.192480 -6.469440 -0.000000 -176.554000 -21.980500 -0.429380 39.081100 -0.000007 -0.000012 -0.150504 0.280199 28.241800 40.985400 -0.000006 -0.000013 1.791760 2.158710 -71.395200 11.754300 -0.000000 0.000003 -0.000268 -0.002367 -16.666100 -2.192510 6.469440 -0.000001 172.792000 17.022500 176.804000 -39.081100 -0.002282 -0.040193 -0.178452 0.343424 27.890400 -40.985400 0.000008 0.000006 1.570880 21.352000 -68.165200 -11.754300 -0.000006 -0.000006 -0.000422 -0.006821 -16.850900
0.000000 0.000000 0.000000 0.000000 0.000000 -0.000000 3.721700 91.058800 0.632573 89.200100 -13.668200 6.186440 15.735700 0.000005 -0.000001 80.811500 84.614100 -77.772400 8.984550 -0.406207 -0.000000 2.925130 -1.846600 6.119610 16.377300 -0.000001 -0.000001 8.922100 -2.961850 -2.892230 6.456720 -0.000001 -0.000000 6.714400 -4.532250 0.305036 12.994200 -0.242716 4.980390 -88.012200 -4.562990 -66.429900 5.348090 -0.000007 -0.000001 -27.902100 -48.117800 -53.589500 24.328600 0.000019 0.000005 20.115900 2.762860 -82.502900 22.291600 -0.000001 0.000005 20.157300 5.321520 -0.539677 12.994500 -0.242716 -4.980390 87.804800 10.325800 -77.928700 -5.348130 -0.000001 -0.000004 -60.818600 28.099000 -7.455400 -24.328900 0.000322 -0.000009 0.188750 0.501286 -20.739500 -22.291500 -0.000108 -0.000004 16.231600 5.410480 -3.281230 -2.192480 -6.469440 -0.000000 -176.458000 -21.360800 -0.604784 39.081100 -0.000007 -0.000012 -0.150558 0.278939 28.358300 40.985400 -0.000006 -0.000013 1.803270 2.736290 -71.288700 11.754300 -0.000000 0.000003 -0.000253 -0.002258 -16.662100 -2.192510 6.469440 -0.000001 172.809000 17.785000 176.991000 -39.081100 -0.002282 -0.040193 -0.181861 0.348826 27.960900 -40.985400 0.000008 0.000006 1.702620 21.003400 -68.312900 -11.754300 -0.000006 -0.000006 -0.000429 -0.006940 -16.855700
0.000000 0.000000 0.000000 0.000000 0.000000 -0.000000 3.467050 91.078700 0.530345 89.261700 -12.613700 6.215220 15.735700 0.000005 -0.000001 82.208200 84.548000 -79.332400 8.984550 -0.406207 -0.000000 3.084870 -1.594070 5.788750 16.377300 -0.000001 -0.000001 8.422880 -3.130470 -2.439740 6.456720 -0.000001 -0.000000 6.279330 -4.612000 -0.013507 12.994200 -0.242716 4.980390 -88.617400 -3.277820 -67.114200 5.348090 -0.000007 -0.000001 -26.164300 -42.412500 -46.100800 24.328600 0.000019 0.000005 19.990600 0.371818 -88.978500 22.291600 -0.000001 0.000005 20.287900 5.324990 -0.639982 12.994500 -0.242716 -4.980390 87.746700 10.441900 -77.750800 -5.348130 -0.000001 -0.000004 -60.865400 28.705300 -7.690490 -24.328900 0.000322 -0.000009 0.172654 0.465107 -20.480400 -22.291500 -0.000108 -0.000004 16.134200 5.409100 -3.235430 -2.192480 -6.469440 -0.000000 -176.375000 -20.787800 -0.747702 39.081100 -0.000007 -0.000012 -0.152138 0.281719 28.370800 40.985400 -0.000006 -0.000013 1.774360 3.249490 -71.128700 11.754300 -0.000000 0.000003 -0.000256 -0.002276 -16.662800 -2.192510 6.469440 -0.000001 172.855000 18.425600 177.180000 -39.081100 -0.002282 -0.040193 -0.180578 0.346346 27.965200 -40.985400 0.000008 0.000006 1.810620 20.543900 -68.430500 -11.754300 -0.000006 -0.000006 -0.000316 -0.005151 -16.783000
0.000000 0.000000 0.000000 0.000000 0.000000 -0.000000 3.227930 91.090500 0.429439 89.325300 -11.705900 6.164790 15.735700 0.000005 -0.000001 83.845100 84.494300 -81.174600 8.984550 -0.406207 -0.000000 3.218150 -1.285160 5.371620 16.377300 -0.000001 -0.000001 7.866980 -3.246310 -1.821680 6.456720 -0.000001 -0.000000 5.855340 -4.614110 -0.238392 12.994200 -0.242716 4.980390 -89.197800 -1.938270 -67.512100 5.348090 -0.000007 -0.000001 -25.534100 -34.716800 -39.322100 24.328600 0.000019 0.000005 19.179300 -1.326070 -93.806800 22.291600 -0.000001 0.000005 20.397700 5.334840 -0.927310 12.994500 -0.242716 -4.980390 87.700000 10.569800 -77.649500 -5.348130 -0.000001 -0.000004 -61.110000 28.980200 -7.777980 -24.328900 0.000322 -0.000009 0.162717 0.445040 -20.203600 -22.291500 -0.000108 -0.000004 16.070500 5.406720 -3.156970 -2.192480 -6.469440 -0.000000 -176.337000 -20.257800 -0.979426 39.081100 -0.000007 -0.000012 -0.151156 0.279443 28.410000 40.985400 -0.000006 -0.000013 1.736740 3.697710 -70.993700 11.754300 -0.000000 0.000003 -0.000241 -0.002165 -16.658800 -2.192510 6.469440 -0.000001 172.944000 18.839400 177.217000 -39.081100 -0.002282 -0.040193 -0.185201 0.354397 28.009100 -40.985400 0.000008 0.000006 1.883390 20.029400 -68.540700 -11.754300 -0.000006 -0.000006 -0.000407 -0.006586 -16.841300
0.000000 0.000000 0.000000 0.000000 0.000000 -0.000000 3.005890 91.111800 0.344421 89.361700 -10.909700 6.112260 15.735700 0.000005 -0.000001 85.715100 84.448600 -83.245600 8.984550 -0.406207 -0.000000 3.330720 -0.924059 4.960720 16.377300 -0.000001 -0.000001 7.347640 -3.301830 -1.232320 6.456720 -0.000001 -0.000000 5.470320 -4.645680 -0.314843 12.994200 -0.242716 4.980390 -89.791900 -0.510651 -67.828000 5.348090 -0.000007 -0.000001 -26.609400 -25.492600 -33.530200 24.328600 0.000019 0.000005 18.654800 -2.015380 -95.947100 22.291600 -0.000001 0.000005 19.425900 5.353250 -1.477090 12.994500 -0.242716 -4.980390 87.663500 10.683600 -77.587500 -5.348130 -0.000001 -0.000004 -61.349000 29.219200 -7.721280 -24.328900 0.000322 -0.000009 0.118816 0.329737 -19.978000 -22.291500 -0.000108 -0.000004 15.918900 5.404370 -3.080140 -2.192480 -6.469440 -0.000000 -176.298000 -19.750600 -1.158750 39.081100 -0.000007 -0.000012 -0.151761 0.280872 28.383500 40.985400 -0.000006 -0.000013 1.673460 3.999460 -70.845100 11.754300 -0.000000 0.000003 -0.000226 -0.002053 -16.654700 -2.192510 6.469440 -0.000001 173.045000 19.296500 177.291000 -39.081100 -0.002282 -0.040193 -0.182221 0.349295 27.975100 -40.985400 0.000008 0.000006 1.969070 19.646800 -68.609600 -11.754300 -0.000006 -0.000006 -0.000337 -0.005485 -16.796600
